<svg xmlns="http://www.w3.org/2000/svg" viewBox="0 0 39.66 31.83" fill="currentColor">
  <path d="M27.51,23.35h1.2c2.42,0,4.41-1.92,4.41-4.24v-1.36l-5.61,5.6ZM28.71,0H4.41C1.99,0,0,1.92,0,4.24v27.59l8.83-8.48h7.51v-1.91l13.06-13.06,1.37-1.36,2.35-2.35v-.43c0-2.32-1.99-4.24-4.41-4.24ZM16.76,20.1c-.35.34-.84.53-1.33.53-.99-.02-1.78-.78-1.8-1.75,0-.94.81-1.71,1.8-1.71h.01c1.02,0,1.8.73,1.83,1.63.01.5-.17.96-.51,1.3ZM18.85,10.96l-.62.53c-.65.42-1.11,1.11-1.26,1.89l-.02.41c-.03.49-.07,1.01-.07,1.57.02.1.01.18-.03.24h0s-.06.01-.13.01h-.08c-.16-.02-.32-.02-.48-.02h-.81c-.47,0-.96,0-1.41.02-.16,0-.16-.02-.16-.15-.05-1.37-.04-2.92.48-4.02.41-.75,1.02-1.38,1.77-1.83.63-.39,1.16-.85,1.62-1.4.63-.67.79-1.64.4-2.48-.56-.87-1.51-1.38-2.56-1.38h-.1c-1.47,0-2.72.95-3.08,2.31-.13.39-.14.39-.27.39-.07,0-.14-.01-.23-.01,0,0-2.13-.26-2.53-.32-.14-.01-.19-.03-.21-.05-.02-.03-.02-.08,0-.16.3-3.18,3.52-4.84,6.55-4.84h.15c1.59,0,3.16.53,4.41,1.5,1.04.86,1.65,2.12,1.69,3.43-.02,1.8-1.61,3.16-3.01,4.36Z"/>
  <polygon points="39.66 8.38 35.95 12.09 32.76 8.9 32.23 8.38 32.61 8 35.95 4.66 39.66 8.38"/>
  <polygon points="34.48 13.56 32.58 15.46 24 24.04 22.06 25.98 18.34 25.98 18.34 22.27 30.77 9.84 32.85 11.93 34.48 13.56"/>
</svg>
