<svg xmlns="http://www.w3.org/2000/svg" viewBox="0 0 40.97 32.12" fill="currentColor">
  <path d="M33.92,8.98l-.38.38.53.52c-.04-.3-.09-.6-.15-.9ZM22.77,0h-11.38C5,0,0,5.01,0,11.38v18.47c0,.68.46,1.6,1.14,2.05.22.22.68.22,1.13.22s.68,0,.92-.22l4.58-6.61h9.84v-2.89l15.61-15.61c-1.73-4.03-5.72-6.79-10.45-6.79ZM24.97,12.31c0,.51-.42.93-.92.93h-5.75c-.25,0-.46.2-.46.45v5.81c0,.51-.41.93-.92.93h-.62c-.51,0-.93-.42-.93-.93v-5.81c0-.25-.2-.45-.45-.45h-5.75c-.51,0-.92-.42-.92-.93v-.61c0-.51.41-.92.92-.92h5.75c.25,0,.45-.21.45-.46v-5.81c0-.51.42-.93.93-.93h.62c.51,0,.92.42.92.93v5.81c0,.25.21.46.46.46h5.75c.5,0,.92.41.92.92v.61Z"/>
  <polygon points="40.97 9.36 37.26 13.07 34.07 9.88 33.54 9.36 33.92 8.98 37.26 5.65 40.97 9.36"/>
  <polygon points="35.79 14.54 33.89 16.45 25.31 25.02 23.37 26.96 19.65 26.96 19.65 23.25 32.08 10.83 34.16 12.91 35.79 14.54"/>
</svg>
