<?xml version="1.0" encoding="UTF-8"?>
<svg id="Layer_2" data-name="Layer 2" xmlns="http://www.w3.org/2000/svg" viewBox="0 0 417 80.14">
  <g id="Layer_1-2" data-name="Layer 1">
    <path d="M416.69,57.46c-.13.89-.31,1.76-.53,2.61-.22.86-.48,1.69-.78,2.52-.3.82-.64,1.62-1.01,2.4-.57,1.17-1.21,2.29-1.93,3.36-1.2,1.78-2.61,3.41-4.2,4.85-.32.29-.64.57-.97.84-.99.82-2.04,1.56-3.15,2.24-.74.45-1.49.86-2.27,1.23-.78.37-1.58.71-2.4,1.01-.82.3-1.66.56-2.52.78-1.28.33-2.6.57-3.95.7-.9.09-1.81.14-2.74.14H26.76c-.92,0-1.83-.05-2.74-.14-1.35-.14-2.67-.37-3.95-.7-.86-.22-1.69-.48-2.52-.78-.82-.3-1.62-.64-2.4-1.01-.78-.38-1.54-.79-2.27-1.23-1.1-.67-2.15-1.42-3.15-2.24-.33-.28-.65-.55-.97-.84-1.58-1.44-2.99-3.07-4.2-4.85-.72-1.07-1.36-2.19-1.93-3.36-.37-.78-.71-1.58-1.01-2.4-.3-.82-.56-1.66-.78-2.52-.22-.85-.4-1.72-.53-2.61-.2-1.33-.31-2.69-.31-4.07v-22.67c0-4.12,3.07-7.53,7.06-8.06.06,0,.12,0,.18-.01.28-.02.56-.03.84-.06.02,0,.03,0,.05,0,.27-.02.54-.05.81-.07.15-.02.3-.03.45-.05.76-.08,1.54-.18,2.34-.3.22-.03.44-.07.67-.11.36-.06.73-.13,1.1-.2.31-.06.63-.13.95-.2.32-.07.64-.14.97-.22.28-.06.55-.14.83-.21.21-.05.42-.11.63-.17.14-.04.29-.08.43-.13.03,0,.06-.02.09-.03.46-.14.93-.28,1.4-.44.35-.12.7-.24,1.05-.37.16-.06.33-.13.5-.19.16-.06.33-.13.5-.2.22-.09.45-.18.67-.28.18-.08.36-.16.55-.24.43-.19.85-.4,1.28-.61.14-.07.29-.14.43-.22.36-.18.71-.37,1.07-.58.11-.06.22-.12.33-.18.13-.08.26-.15.39-.23.32-.19.64-.39.96-.6.22-.14.44-.28.65-.43.21-.14.42-.28.63-.43.12-.08.24-.17.36-.26.42-.31.84-.62,1.26-.96.2-.16.41-.32.6-.49.23-.18.45-.38.67-.57.03-.03.06-.05.09-.08.19-.18.39-.35.59-.54.03-.02.05-.05.08-.07.22-.2.44-.41.66-.63C46.59-1.88,60.01.18,90.97.18l80.27-.18h74.53l80.27.18c30.96,0,44.38-2.06,58.86,12.13.22.21.44.42.66.63.02.02.05.05.08.07.19.18.39.36.59.54.03.02.06.05.09.08.23.19.45.39.67.57.2.17.4.33.6.49.42.34.84.65,1.26.96.12.09.24.18.36.26.21.15.42.29.63.43.22.15.44.29.65.43.32.21.64.41.96.6.13.08.26.15.39.23.11.06.22.12.33.18.36.2.71.39,1.07.58.14.08.29.15.43.22.43.21.85.42,1.28.61.18.08.36.16.55.24.23.1.45.19.67.28.17.07.34.14.5.2.16.06.33.13.5.19.35.13.7.26,1.05.37.47.16.94.31,1.4.44.03.01.06.02.09.03.15.05.29.08.43.13.21.06.42.12.63.17.28.07.55.15.83.21.32.08.65.15.97.22.32.07.64.14.95.2.37.07.74.14,1.1.2.23.04.45.07.67.11.8.12,1.58.22,2.34.3.15.02.31.03.45.05.27.03.54.05.81.07.02,0,.03,0,.05,0,.28.02.57.04.84.06.06,0,.12,0,.18.01,3.98.52,7.06,3.93,7.06,8.06v22.67c0,1.38-.11,2.74-.31,4.07Z"/>
  </g>
</svg>
