<?xml version="1.0" encoding="UTF-8"?>
<svg id="Layer_2" data-name="Layer 2" xmlns="http://www.w3.org/2000/svg" viewBox="0 0 1644.56 500.71">
  <defs>
    <style>
      .cls-1 {
        fill: #7a53a2;
      }
    </style>
  </defs>
  <g id="Layer_2-2" data-name="Layer 2">
    <path class="cls-1" d="M1643.42,312.82v-150.58c0-40.34-17.88-80.84-49.06-111.12C1560.43,18.16,1513.06,0,1460.96,0c-5.81,0-11.77.23-17.71.66l-117.95,6.13-.64.04c-18.26,1.14-35.64,6.83-50.75,16.41-16.86-10.68-36.53-16.53-56.78-16.53h-5.6l-126.72,23.88c-12.87.77-25.09,3.76-36.23,8.8-3.48-4.08-7.29-7.89-11.42-11.41-19.07-16.24-43.81-25.19-69.65-25.19-29.7,0-58.07,11.9-77.87,32.66C857.93,12.46,818.04,0,774.91,0c-5.81,0-11.77.23-17.71.66l-117.96,6.13-.63.04c-18.26,1.14-35.65,6.83-50.75,16.41-16.87-10.68-36.53-16.53-56.78-16.53h-5.6l-126.72,23.88c-12.87.77-25.09,3.76-36.24,8.8-3.48-4.08-7.29-7.89-11.42-11.41-19.06-16.24-43.8-25.19-69.65-25.19-23.09,0-45.38,7.2-63.46,20.16-18.08-13.01-40.19-20.09-63.34-20.09-26.82,0-52.26,9.49-71.64,26.71-21.97,19.53-34.21,47.23-34.57,78.12C19.66,122.9,0,153.14,0,187.89v18.21c0,34.74,19.65,64.98,48.42,80.19v107.84c0,31.45,12.29,59.69,34.59,79.52,19.37,17.22,44.82,26.71,71.64,26.71s52.26-9.49,71.64-26.71c.74-.66,1.46-1.32,2.17-1.99,17.57,14.82,40.01,23.96,64.64,24.81l93.37,3.82c5.13.28,10.3.42,15.36.42,47.61,0,89.97-12.12,124.17-34,18.6,19.24,44.15,29.8,72.42,29.8h253.81c23.02,0,45.26-8.28,63.84-23.56,17.33,14.06,39.18,22.69,63.09,23.52l93.36,3.82c5.14.28,10.3.42,15.36.42,47.61,0,89.97-12.12,124.18-34,18.6,19.24,44.14,29.8,72.41,29.8h253.81c27.39,0,53.67-11.72,74-32.99,17.23-18.03,28.49-41.22,31.7-65.3l.58-4.38-1.14-81.02ZM49.02,206.51v-18.21c0-16.92,13.72-30.65,30.65-30.65h18.2c16.93,0,30.65,13.73,30.65,30.65v18.21c0,16.92-13.72,30.64-30.65,30.64h-18.2c-16.93,0-30.65-13.72-30.65-30.64ZM200.87,394.13c0,61.64-92.45,61.64-92.45,0v-127.39h.43c33.44,0,60.65-27.2,60.65-60.64v-18.21c0-33.44-27.21-60.65-60.65-60.65h-.43v-18.16c0-61.63,92.45-61.63,92.45,0v285.05ZM553.42,321.72c-13.09,81.66-80.12,123.26-164.1,118.64l-93.99-3.85c-24.65-.77-43.14-20.03-44.68-43.91l-15.41-281.21c-3.08-61.63,88.6-66.25,92.45-4.62l13.1,253.47,52.39-.77h.77c36.21,2.31,63.17-17.72,68.56-51.62l19.29-151.97-76.39,15.41c-53.93,0-53.93-80.89,0-80.89l125.67-23.69c27.73,0,49.31,24.65,46.23,51.62l-23.12,201.85c0,.77-.77,1.54-.77,1.54ZM852.23,436.51h-253.81c-53.93,0-53.93-80.89,0-80.89h207.26v-41.61l-.77-152.54c0-13.1-20.03-21.57-36.98-20.03h-1.54l-75.5.77-12.29,94.53c0,61.64-92.45,61.64-92.45,0l12.29-123.81c0-24.65,19.26-44.68,43.92-46.22l118.64-6.16c90.14-6.94,136.36,53.93,136.36,101.69v151l1.09,77.04c-3.08,23.12-23.11,46.23-46.22,46.23ZM1239.48,321.72c-13.1,81.66-80.13,123.26-164.1,118.64l-93.99-3.85c-24.66-.77-43.15-20.03-44.69-43.91l-15.41-281.21c-3.08-61.63,88.6-66.25,92.45-4.62l13.1,253.47,52.39-.77h.77c36.21,2.31,63.17-17.72,68.57-51.62l19.28-151.97-76.39,15.41c-53.93,0-53.93-80.89,0-80.89l125.67-23.69c27.74,0,49.31,24.65,46.23,51.62l-23.11,201.85c0,.77-.77,1.54-.77,1.54ZM1538.28,436.51h-253.81c-53.93,0-53.93-80.89,0-80.89h207.27v-41.61l-.77-152.54c0-13.1-20.03-21.57-36.98-20.03h-1.55l-75.5.77-12.29,94.53c0,61.64-92.45,61.64-92.45,0l12.29-123.81c0-24.65,19.26-44.68,43.92-46.22l118.64-6.16c90.14-6.94,136.37,53.93,136.37,101.69v151l1.09,77.04c-3.09,23.12-23.12,46.23-46.23,46.23Z"/>
  </g>
</svg>