<?xml version="1.0" encoding="UTF-8"?>
<svg id="Layer_2" data-name="Layer 2" xmlns="http://www.w3.org/2000/svg" viewBox="0 0 1483.91 382.33">
  <defs>
    <style>
      .cls-1 {
        fill: #9437e3;
      }

      .cls-2 {
        fill: #5b43e0;
      }
    </style>
  </defs>
  <g id="Layer_1-2" data-name="Layer 1">
    <path class="cls-2" d="M48.42,6.71v70.53h.43c27.93,0,50.65,22.72,50.65,50.65v18.2c0,27.93-22.72,50.65-50.65,50.65h-.43v137.39c0,61.64,92.45,46.58,92.45,46.58V16.71L48.42,6.71Z"/>
    <path class="cls-2" d="M171.6,14.74l92.45,5.38,16.74,280.11,42.39-.77h.77c36.21,2.31,63.17-17.72,68.57-51.62l19.28-151.97-108.48,21.88,32.09-87.37,125.67-23.69c27.73,0,49.31,24.65,46.22,51.62l-23.11,201.85c0,.77-.77,1.54-.77,1.54-13.1,81.66-80.12,123.27-164.1,118.64h-125.81S171.6,14.74,171.6,14.74Z"/>
    <path class="cls-2" d="M613.66,203l-94.97,15.47,20.84-165.54c0-24.65,19.26-44.68,43.91-46.23l98.64-6.16c90.14-6.93,136.36,53.93,136.36,101.69v151l1.09,77.04c-3.08,23.11-23.11,46.23-46.23,46.23h-290.22l36.41-80.89h207.27v-41.6l-.77-152.54c0-13.1-20.03-21.57-36.98-20.03h-1.54l-55.5.77-18.32,120.79Z"/>
    <path class="cls-2" d="M835.96,14.74l92.45,5.38,16.74,280.11,42.39-.77h.77c36.21,2.31,63.17-17.72,68.57-51.62l19.28-151.97-108.48,21.88,32.09-87.37,125.67-23.69c27.73,0,49.31,24.65,46.22,51.62l-23.11,201.85c0,.77-.77,1.54-.77,1.54-13.1,81.66-80.12,123.27-164.1,118.64h-125.81s-21.91-365.61-21.91-365.61Z"/>
    <path class="cls-2" d="M1278.02,203l-94.97,15.47,20.84-165.54c0-24.65,19.26-44.68,43.91-46.23l98.64-6.16c90.14-6.93,136.36,53.93,136.36,101.69v151l1.09,77.04c-3.08,23.11-23.11,46.23-46.23,46.23h-290.22l36.41-80.89h207.27v-41.6l-.77-152.54c0-13.1-20.03-21.57-36.98-20.03h-1.54l-55.5.77-18.32,120.79Z"/>
    <rect class="cls-1" x="0" y="97.24" width="79.5" height="79.5" rx="30.65" ry="30.65"/>
  </g>
</svg>